<svg width="47" height="49" viewBox="0 0 47 49" fill="none" xmlns="http://www.w3.org/2000/svg">
<path d="M32.0639 48.2939L14.9319 48.2939C14.3573 48.2939 13.836 48.0586 13.4584 47.6788C13.0808 47.2989 12.8468 46.7746 12.8468 46.1965C12.8468 45.6185 13.0808 45.0942 13.4584 44.7143C13.836 44.3345 14.3573 44.0991 14.9319 44.0991L32.0639 44.0991C32.6385 44.0991 33.1598 44.3345 33.5374 44.7143C33.915 45.0942 34.1489 45.6185 34.1489 46.1965C34.1489 46.7704 33.915 47.2948 33.5374 47.6746L33.5374 47.6788C33.1598 48.0586 32.6385 48.2939 32.0639 48.2939Z" fill="#141414"/>
<path fill-rule="evenodd" clip-rule="evenodd" d="M32.0637 47.0059L14.9318 47.0059C14.4885 47.0059 14.1273 46.6425 14.1273 46.1966C14.1273 45.7507 14.4885 45.3874 14.9318 45.3874L32.0637 45.3874C32.507 45.3874 32.8682 45.7507 32.8682 46.1966C32.8682 46.6425 32.507 47.0059 32.0637 47.0059Z" fill="white"/>
<path fill-rule="evenodd" clip-rule="evenodd" d="M29.9748 47.0059L17.0294 47.0059C16.5861 47.0059 16.2249 46.6425 16.2249 46.1966C16.2249 45.7507 16.5861 45.3874 17.0294 45.3874L29.9748 45.3874C30.4181 45.3874 30.7793 45.7507 30.7793 46.1966C30.7752 46.6425 30.414 47.0059 29.9748 47.0059Z" fill="#C2D7F2"/>
<path d="M20.0792 43.6285L20.0833 43.4716C20.0833 43.4262 20.0874 43.3808 20.0915 43.3354C20.1695 42.6293 20.7974 42.1215 21.4993 42.2C21.8441 42.2371 22.1765 42.266 22.4967 42.2825C22.8497 42.3032 23.1862 42.3114 23.5023 42.3114C23.8183 42.3114 24.1508 42.3032 24.5079 42.2825C24.828 42.266 25.1605 42.2371 25.5052 42.2C25.5299 42.1958 25.5504 42.1958 25.575 42.1958C26.2769 42.1587 26.8802 42.6995 26.9172 43.4055C26.9172 43.4427 26.9213 43.5129 26.9254 43.6202L26.9254 43.6285C26.9295 43.8102 26.9336 43.8225 26.9336 43.8515C26.9336 45.1396 26.6299 46.3287 26.1373 47.2081C25.5217 48.3146 24.5941 49 23.5023 49C22.4105 49 21.4829 48.3146 20.8672 47.2123C20.3747 46.3287 20.071 45.1396 20.071 43.8556C20.071 43.8267 20.0751 43.8102 20.0792 43.6285ZM22.7183 44.863C22.7963 45.2883 22.9277 45.6598 23.0918 45.9571C23.256 46.2503 23.4038 46.4319 23.4982 46.4319C23.5926 46.4319 23.7444 46.2503 23.9045 45.9571C24.0687 45.6598 24.2 45.2883 24.278 44.863C24.0276 44.8713 23.765 44.8754 23.4941 44.8754C23.2314 44.8754 22.9687 44.8713 22.7183 44.863Z" fill="#141414"/>
<path fill-rule="evenodd" clip-rule="evenodd" d="M21.3596 43.48C21.3514 43.6038 21.3514 43.7277 21.3514 43.8557C21.3514 45.9902 22.3159 47.7161 23.5021 47.7161C24.6883 47.7161 25.6528 45.9861 25.6528 43.8557C25.6528 43.7277 25.6487 43.6038 25.6446 43.48C24.9304 43.5584 24.2163 43.5997 23.5021 43.5956C22.7879 43.5956 22.0738 43.5584 21.3596 43.48Z" fill="white"/>
<path fill-rule="evenodd" clip-rule="evenodd" d="M22.197 44.3096C22.1929 44.384 22.1929 44.4583 22.1929 44.5367C22.1929 45.8332 22.7798 46.886 23.5022 46.886C24.2246 46.886 24.8115 45.8332 24.8115 44.5367C24.8115 44.4583 24.8115 44.384 24.8074 44.3096C24.3723 44.3592 23.9373 44.3798 23.5063 44.3798C23.0671 44.3798 22.6321 44.3551 22.197 44.3096Z" fill="#C2D7F2"/>
<path d="M25.5749 9.62415C26.1946 9.47551 26.7898 9.22366 27.3398 8.90575C28.2387 8.38552 29.0144 7.68776 29.5808 6.94872L25.5749 6.94872L25.5749 9.62415ZM28.6081 11.127C27.3193 11.8702 25.8417 12.3491 24.2943 12.3491C23.5883 12.3491 23.0178 11.7752 23.0178 11.0651L23.0178 5.66468C23.0178 4.95453 23.5883 4.38064 24.2943 4.38064L30.1226 4.38064C31.239 4.38064 31.9819 4.53753 32.4375 5.21877C32.9177 5.93717 32.7782 6.73815 32.0312 7.89833C31.2554 9.11218 30.0487 10.293 28.6081 11.127ZM30.2539 6.64732C30.3524 6.72576 30.4058 6.77531 30.3237 6.64732C30.258 6.54823 30.2498 6.57713 30.2539 6.64732Z" fill="#141414"/>
<path fill-rule="evenodd" clip-rule="evenodd" d="M24.294 11.0649C27.1055 11.0649 29.6913 9.18223 30.9596 7.20869C31.8215 5.86684 31.4973 5.66866 30.1223 5.66866C28.0085 5.66866 26.4078 5.66866 24.294 5.66866C24.294 7.46467 24.294 9.26481 24.294 11.0649Z" fill="#146E99"/>
<path d="M22.7056 12.3533C21.1623 12.3533 19.6806 11.8743 18.3918 11.1312C16.9511 10.2972 15.7444 9.11633 14.9646 7.90248C14.2176 6.7423 14.078 5.94132 14.5582 5.22292C15.0179 4.53755 15.7567 4.38479 16.8732 4.38479L22.7015 4.38479C23.4074 4.38479 23.9779 4.95868 23.9779 5.66883L23.9779 11.0651C23.9861 11.7752 23.4115 12.3533 22.7056 12.3533ZM19.6601 8.90989C20.2101 9.22781 20.8052 9.47966 21.425 9.6283L21.425 6.957L17.419 6.957C17.9896 7.69191 18.7612 8.38554 19.6601 8.90989ZM16.6802 6.64734C16.5941 6.77533 16.6515 6.72578 16.75 6.64734C16.75 6.57715 16.7459 6.54825 16.6802 6.64734Z" fill="#141414"/>
<path fill-rule="evenodd" clip-rule="evenodd" d="M22.7056 11.0649C19.8899 11.0649 17.3082 9.18223 16.0399 7.20869C15.178 5.86684 15.5023 5.66866 16.8772 5.66866C18.991 5.66866 20.5918 5.66866 22.7056 5.66866C22.7056 7.46467 22.7056 9.26481 22.7056 11.0649Z" fill="#146E99"/>
<path fill-rule="evenodd" clip-rule="evenodd" d="M24.2942 6.37491L24.2942 10.355C26.2889 10.2683 28.1031 8.92232 29.0061 7.5103C29.6423 6.51941 29.4001 6.37078 28.3863 6.37078L24.2942 6.37078L24.2942 6.37491Z" fill="#146E99"/>
<path fill-rule="evenodd" clip-rule="evenodd" d="M22.7056 6.37491L22.7056 10.355C20.7108 10.2683 18.8966 8.92232 17.9937 7.5103C17.3575 6.51941 17.5996 6.37078 18.6134 6.37078L22.7056 6.37078L22.7056 6.37491Z" fill="#146E99"/>
<path d="M30.0198 43.8473C27.8609 44.5285 25.6856 44.8795 23.502 44.8712C22.402 44.8753 21.3061 44.7886 20.2102 44.6111C19.102 44.4335 18.0102 44.1693 16.9349 43.8308C16.389 43.6573 16.0401 43.1495 16.0401 42.6045L16.0401 26.3331C16.0401 23.538 16.6599 22.6214 17.4397 21.4612C18.4781 19.917 19.8901 17.8196 19.8901 6.01142C19.8901 5.8504 19.9188 5.69764 19.9722 5.55726C20.4852 3.82319 21.0804 2.60934 21.7248 1.91983C22.2583 1.35007 22.8535 1.06518 23.502 1.06518C24.1505 1.06518 24.7456 1.35007 25.2792 1.91983C25.9318 2.62172 26.5393 3.86447 27.0564 5.64809C27.0934 5.76783 27.1098 5.89169 27.1098 6.01142L27.1139 6.01142C27.1139 17.8196 28.5258 19.917 29.5643 21.4612C30.3441 22.6214 30.9639 23.5421 30.9639 26.3331L30.9639 42.6086C30.9598 43.2032 30.5616 43.7028 30.0198 43.8473ZM23.502 42.3155C25.1273 42.3196 26.7609 42.0925 28.4068 41.6466L28.4068 26.3372C28.4068 24.3265 27.984 23.6948 27.4464 22.898C26.2273 21.0855 24.5732 18.6247 24.5568 6.18896C24.1997 4.99988 23.8427 4.19477 23.502 3.77364C23.1613 4.19477 22.8042 4.99988 22.4471 6.18896C22.4307 18.6247 20.7766 21.0855 19.5576 22.898C19.024 23.6948 18.5972 24.3224 18.5972 26.3372L18.5972 41.6466C19.2785 41.8324 19.9475 41.9769 20.6084 42.0843C21.577 42.2371 22.5415 42.3155 23.502 42.3155ZM23.502 3.63739C23.4692 3.63739 23.4815 3.64152 23.502 3.64565C23.5225 3.64152 23.5307 3.63739 23.502 3.63739Z" fill="#141414"/>
<path fill-rule="evenodd" clip-rule="evenodd" d="M29.6834 42.6088C27.623 43.2611 25.5625 43.5997 23.5021 43.5956C21.4417 43.6038 19.3812 43.2653 17.3208 42.6088L17.3208 26.3374C17.3208 19.8057 21.1708 25.3093 21.1708 6.01156C22.595 1.13138 24.4133 1.13138 25.8375 6.01156C25.8375 25.3093 29.6875 19.8016 29.6875 26.3374L29.6875 42.6088L29.6834 42.6088Z" fill="#F0D712"/>
<path fill-rule="evenodd" clip-rule="evenodd" d="M23.5638 43.5955L23.5022 43.5955L23.4406 43.5955C22.1436 43.5913 20.8466 43.2528 19.5537 42.6087L19.5537 26.3373C19.5537 19.8056 22.0123 25.3092 22.0123 6.01148C22.4679 3.57139 22.985 2.34928 23.5022 2.34928C24.0194 2.34928 24.5365 3.57139 24.9921 6.01148C24.9921 25.3092 27.4507 19.8015 27.4507 26.3373L27.4507 42.6087C26.1537 43.2528 24.8567 43.5913 23.5638 43.5955Z" fill="#F36E21"/>
<path d="M30.0198 43.8473C27.8609 44.5285 25.6856 44.8795 23.502 44.8712C22.402 44.8753 21.3061 44.7886 20.2102 44.6111C19.102 44.4335 18.0102 44.1693 16.9349 43.8307C16.389 43.6573 16.0401 43.1495 16.0401 42.6045L16.0401 40.0818C16.0401 39.3717 16.6106 38.7978 17.3166 38.7978C17.4397 38.7978 17.5588 38.8143 17.6737 38.8473C19.6274 39.3015 21.5729 39.5368 23.502 39.541C25.4598 39.5451 27.4217 39.3139 29.3837 38.835C30.0691 38.6698 30.7545 39.0909 30.9228 39.7804C30.9474 39.8795 30.9598 39.9828 30.9598 40.0818L30.9639 40.0818L30.9639 42.6086C30.9598 43.2032 30.5616 43.7028 30.0198 43.8473ZM23.502 42.3155C25.0617 42.3196 26.6296 42.1091 28.2098 41.7003C26.6419 41.9728 25.074 42.1049 23.502 42.1049C21.893 42.1008 20.2923 41.9563 18.6998 41.6755C19.3442 41.8489 19.9804 41.9852 20.6125 42.0843C21.577 42.2371 22.5415 42.3155 23.502 42.3155Z" fill="#141414"/>
<path fill-rule="evenodd" clip-rule="evenodd" d="M29.6831 42.6088C27.6227 43.2611 25.5622 43.5997 23.5018 43.5956C21.4414 43.6038 19.3809 43.2653 17.3205 42.6088C17.3205 41.7665 17.3205 40.9242 17.3205 40.082C21.4414 41.0481 25.5622 41.0853 29.6831 40.082L29.6831 42.6088Z" fill="#146E99"/>
<path fill-rule="evenodd" clip-rule="evenodd" d="M23.5636 43.5955L23.502 43.5955L23.4404 43.5955C22.1434 43.5913 20.8464 43.2528 19.5535 42.6087L19.5535 40.5154C22.1886 40.9159 24.8195 40.9324 27.4546 40.5278L27.4546 42.6128C26.1535 43.2528 24.8565 43.5913 23.5636 43.5955Z" fill="#146E99"/>
<path d="M41.0075 37.1504L23.5021 37.1504L5.99659 37.1504C4.16601 37.1504 2.76229 36.8903 1.74028 36.1966C0.578728 35.4081 0.00410487 34.2025 0.00410503 32.3982L0.00410554 26.6056C0.0041056 25.8954 0.57462 25.3215 1.28059 25.3215L16.1674 25.3215L16.1674 25.3257L16.5491 25.3257C20.1898 25.3174 20.5263 25.3133 20.5263 29.6567C20.5263 30.2017 20.7357 30.693 21.0722 31.0481C21.3965 31.3867 21.8439 31.6014 22.3323 31.6014L23.5021 31.6014L24.6718 31.6014C25.1602 31.6014 25.6076 31.3908 25.9319 31.0481C26.2684 30.6972 26.4778 30.2017 26.4778 29.6567C26.4778 25.3174 26.8143 25.3174 30.455 25.3257L30.8367 25.3257L30.8367 25.3215L45.7235 25.3215C46.4295 25.3215 47 25.8996 47 26.6097L47 32.3982C47 34.2025 46.4254 35.4081 45.2638 36.1966C44.2418 36.8903 42.8381 37.1504 41.0075 37.1504ZM23.5021 34.5782L41.0075 34.5782C42.3374 34.5782 43.2896 34.4378 43.8355 34.0662C44.2418 33.7896 44.4429 33.2611 44.4429 32.3982L44.4429 27.8937L30.8326 27.8937L30.8326 27.8896L30.4509 27.8896C29.1498 27.8855 29.0307 27.8855 29.0307 29.6567C29.0307 30.8871 28.5464 32.0101 27.7625 32.8235C26.9703 33.6533 25.8703 34.1694 24.6636 34.1694L23.4938 34.1694L22.3323 34.1694C21.1256 34.1694 20.0256 33.6533 19.2334 32.8235C18.4536 32.006 17.9652 30.8829 17.9652 29.6567C17.9652 27.8855 17.8461 27.8855 16.545 27.8896L16.1633 27.8896L16.1633 27.8937L2.55296 27.8937L2.55296 32.3982C2.55296 33.2611 2.75408 33.7896 3.16042 34.0662C3.70631 34.4378 4.65854 34.5782 5.98838 34.5782L23.5021 34.5782Z" fill="#141414"/>
<path fill-rule="evenodd" clip-rule="evenodd" d="M41.0076 35.8623L23.5022 35.8623L5.99669 35.8623C2.83627 35.8623 1.28068 35.0655 1.28068 32.3983L1.28068 26.6057L16.1675 26.6057C18.9955 26.6057 19.2458 26.4488 19.2458 29.6527C19.2458 31.428 20.6373 32.8814 22.3324 32.8814L23.5022 32.8814L24.6719 32.8814C26.3712 32.8814 27.7585 31.428 27.7585 29.6527C27.7585 26.4446 28.0088 26.6057 30.8368 26.6057L45.7236 26.6057L45.7236 32.3983C45.7236 35.0655 44.168 35.8623 41.0076 35.8623Z" fill="#F0D712"/>
<path fill-rule="evenodd" clip-rule="evenodd" d="M39.2917 35.8623L23.5019 35.8623L7.71215 35.8623C4.86367 35.8623 3.45994 35.1934 3.45994 32.9598L3.45994 28.1085L16.8856 28.1085C18.1456 28.1085 18.8393 28.0755 19.2169 28.3686C19.2374 28.7237 19.2456 29.1489 19.2456 29.6568C19.2456 30.338 19.4509 30.9697 19.7997 31.4941C20.1609 32.5799 21.2158 33.3685 22.4512 33.3685L23.506 33.3685L24.5609 33.3685C25.7963 33.3685 26.8471 32.5799 27.2124 31.4941C27.5612 30.9739 27.7665 30.338 27.7665 29.6568C27.7665 29.1448 27.7747 28.7196 27.7952 28.3686C28.1728 28.0755 28.8665 28.1085 30.1265 28.1085L43.5439 28.1085L43.5439 32.9598C43.5439 35.1976 42.1402 35.8623 39.2917 35.8623Z" fill="#F36E21"/>
<path d="M41.0077 37.1504L23.5022 37.1504L5.99676 37.1504C4.62588 37.1504 3.48895 37.0059 2.57776 36.6384C1.49008 36.2008 0.743073 35.4865 0.332627 34.4048C0.0822566 33.74 0.410611 33.001 1.07143 32.7491C1.21919 32.6913 1.37516 32.6666 1.52702 32.6666L45.4774 32.6666C46.1834 32.6666 46.7539 33.2405 46.7539 33.9506C46.7539 34.1405 46.7129 34.3181 46.639 34.4791C46.2203 35.5237 45.4856 36.2132 44.4226 36.6426C43.5114 37.0018 42.3786 37.1504 41.0077 37.1504Z" fill="#141414"/>
<path fill-rule="evenodd" clip-rule="evenodd" d="M41.0076 35.8623L23.5021 35.8623L5.99668 35.8623C3.55453 35.8623 2.07283 35.3875 1.52283 33.9424L45.4814 33.9424C44.9314 35.3875 43.4497 35.8623 41.0076 35.8623Z" fill="#146E99"/>
<path fill-rule="evenodd" clip-rule="evenodd" d="M39.2919 35.8623L23.5021 35.8623L7.71231 35.8623C5.33173 35.8623 3.96085 35.3958 3.57503 33.9424L43.4292 33.9424C43.0434 35.3958 41.6725 35.8623 39.2919 35.8623Z" fill="#146E99"/>
<path fill-rule="evenodd" clip-rule="evenodd" d="M24.2616 30.8955L22.7347 30.8955C21.6265 30.8955 20.7194 29.9831 20.7194 28.8683L20.7194 23.7197C20.7194 22.605 21.6265 21.6925 22.7347 21.6925L24.2616 21.6925C25.3698 21.6925 26.2769 22.605 26.2769 23.7197L26.2769 28.8683C26.2769 29.9831 25.3739 30.8955 24.2616 30.8955Z" fill="#141414"/>
<path fill-rule="evenodd" clip-rule="evenodd" d="M24.003 27.7659L22.9933 27.7659C22.2586 27.7659 21.6593 27.064 21.6593 26.2052L21.6593 24.4587C21.6593 23.6 22.2586 22.8981 22.9933 22.8981L24.003 22.8981C24.7336 22.8981 25.3369 23.6 25.3369 24.4587L25.3369 26.2052C25.3369 27.064 24.7377 27.7659 24.003 27.7659Z" fill="#C2D7F2"/>
<path d="M24.0892 0.181658C24.5407 0.478928 24.8526 0.706012 25.1071 1.11889C25.3657 1.53589 25.4683 2.00244 25.4683 2.70846L25.4683 10.1939C25.4683 10.7017 25.3082 11.1641 25.0537 11.5522C24.7869 11.9651 24.4093 12.2954 24.0235 12.5225C23.6828 12.7207 23.2806 12.7042 22.9646 12.5142C22.5829 12.2913 22.2094 11.961 21.9467 11.5522C21.6922 11.16 21.5321 10.7017 21.5321 10.1939L21.5321 2.70846C21.5321 2.00244 21.6347 1.53589 21.8933 1.11889C22.1478 0.701883 22.4638 0.470673 22.9276 0.169274C23.2929 -0.0701935 23.7485 -0.0495531 24.0892 0.181658Z" fill="#141414"/>
<path fill-rule="evenodd" clip-rule="evenodd" d="M23.5019 1.05701C24.1832 1.49878 24.4131 1.70522 24.4131 2.70851L24.4131 10.1939C24.4131 10.8256 23.9739 11.3335 23.5019 11.606C23.0299 11.3335 22.5907 10.8256 22.5907 10.1939L22.5907 2.70851C22.5907 1.70522 22.8206 1.50291 23.5019 1.05701Z" fill="#146E99"/>
<path fill-rule="evenodd" clip-rule="evenodd" d="M23.5019 2.63011C24.1832 2.93976 24.4131 3.08427 24.4131 3.79029L24.4131 9.04206C24.4131 9.48796 23.9739 9.84304 23.5019 10.033C23.0299 9.84304 22.5907 9.48383 22.5907 9.04206L22.5907 3.78616C22.5907 3.08427 22.8206 2.93976 23.5019 2.63011Z" fill="#146E99"/>
</svg>
